<?xml version="1.0" standalone="yes"?>
<svg xmlns="http://www.w3.org/2000/svg" width="1260" height="940">
<path style="fill:#000000; stroke:none;" d="M0 0L0 940L1260 940L1260 0L0 0z"/>
<path style="fill:#b21f66; stroke:none;" d="M12 13L12 81L26 81C24.377 74.1832 25 66.97 25 60L25 27L76 27L76 13L12 13M1184 13L1184 27L1234 27L1234 81L1248 81L1248 13L1184 13z"/>
<path style="fill:#b11e65; stroke:none;" d="M81 17C88.8789 20.3062 101.466 18 110 18L174 18L399 18L1177 18L1177 23C1177.87 20.9479 1177.95 19.2529 1178 17L81 17z"/>
<path style="fill:#7f007f; stroke:none;" d="M1178 17L1178 22C1178.83 19.9695 1178.83 19.0305 1178 17z"/>
<path style="fill:#b21f65; stroke:none;" d="M81 18L81 23L1177 23C1169.12 19.6938 1156.53 22 1148 22L1084 22L859 22L82 22C81.8259 20.3147 81.6831 19.5062 81 18z"/>
<path style="fill:#b21f66; stroke:none;" d="M82 18L82 22L1177 22L1177 18L82 18z"/>
<path style="fill:#ff0000; stroke:none;" d="M1178 22L1179 23L1178 22z"/>
<path style="fill:#bf1f5f; stroke:none;" d="M25 27L25 80C26.6612 76.0413 26 71.2604 26 67L26 42C26 37.1913 26.8752 31.4688 25 27z"/>
<path style="fill:#b21f66; stroke:none;" d="M29 31C31.9088 36.9525 38.7807 40.4932 44 44.3704C54.9228 52.4844 65.9683 60.4591 77 68.4244C115.819 96.4531 154.312 124.941 193 153.151C286.042 220.995 379.308 288.563 472 356.884C505.895 381.867 539.862 406.776 574 431.424C591.09 443.764 607.694 458.57 626 469C612.578 480.615 597.293 490.366 583 500.884C553.411 522.657 523.571 544.088 494 565.884C392.959 640.359 291.041 713.641 190 788.116C151.789 816.281 113.234 843.981 75 872.116C64.7052 879.691 54.3911 887.268 44 894.71C38.7404 898.477 31.8942 902.077 29 908C34.3147 908.861 37.9073 905.189 42 902.127C49.5943 896.443 57.3859 891.027 65 885.37C96.8214 861.731 128.975 838.513 161 815.151C278.045 729.768 394.214 643.065 512 558.71C541.196 537.8 569.983 516.309 599 495.151L621 479.116C623.486 477.287 627.207 473.316 630.576 473.637C634.123 473.976 638.262 478.329 641 480.374C649.268 486.549 657.704 492.493 666 498.629C696.203 520.968 726.743 542.851 757 565.116C866.034 645.349 976.331 723.903 1085 804.63C1120.13 830.728 1155.75 856.176 1191 882.116L1217 901.116C1221.04 904.087 1224.82 907.776 1230 907C1227.23 901.327 1220.96 898.079 1216 894.374C1205.43 886.485 1194.61 878.939 1184 871.116C1145.79 842.951 1107.21 815.281 1069 787.116C975.295 718.048 880.704 650.183 787 581.116C753.107 556.134 719.137 531.224 685 506.576C668.275 494.5 652.026 480.046 634 470C649.229 456.823 666.726 445.715 683 433.849C713.015 411.963 743.098 390.156 773 368.116C869.701 296.84 966.604 225.747 1064 155.424C1103.84 126.661 1143.16 97.1896 1183 68.4244C1194.03 60.4564 1205.06 52.4648 1216 44.3712C1221.3 40.4501 1228.04 37.0676 1231 31C1225.82 30.2245 1222.03 33.9105 1218 36.8843L1192 55.8843C1157.1 81.6048 1121.8 106.779 1087 132.63C976.01 215.079 864.098 296.487 752 377.424C722.216 398.929 692.784 420.919 663 442.424C655.293 447.989 647.728 453.755 640 459.29C637.438 461.125 633.694 465.069 630.424 465.335C627.265 465.592 623.366 461.575 621 459.849C613.653 454.491 606.392 449.004 599 443.71C569.467 422.559 540.45 400.69 511 379.424C393.886 294.857 277.721 208.958 161 123.849C128.653 100.262 96.5769 76.2681 64 53C56.268 47.4774 48.6795 41.7474 41 36.1512C37.174 33.3632 33.86 30.2726 29 31z"/>
<path style="fill:#b21e65; stroke:none;" d="M16 86L16 853C18.4972 847.049 17 838.42 17 832L17 787L17 631L17 88L21 88C19.3519 87.0759 17.8251 86.5506 16 86z"/>
<path style="fill:#b11c63; stroke:none;" d="M17 86C18.5061 86.683 19.3148 86.8259 21 87L21 853C23.4972 847.049 22 838.42 22 832L22 787L22 630L22 86L17 86z"/>
<path style="fill:#b21f66; stroke:none;" d="M1238 86C1241.32 103.869 1239 123.845 1239 142L1239 247L1239 575L1239 763L1239 821C1239 831.363 1240.41 842.883 1238 853L1244 853C1241.59 842.883 1243 831.363 1243 821L1243 763L1243 576L1243 247L1243 142C1243 123.845 1240.68 103.869 1244 86L1238 86M17 88L17 853L21 853L21 88L17 88z"/>
<path style="fill:#b11f66; stroke:none;" d="M1238 88L1238 852C1240.19 846.784 1239 839.619 1239 834L1239 795L1239 662L1239 255L1239 138L1239 104C1239 98.9197 1239.98 92.7199 1238 88z"/>
<path style="fill:#b01d65; stroke:none;" d="M1243 88L1243 852C1244.98 847.28 1244 841.08 1244 836L1244 802L1244 685L1244 278L1244 145L1244 106C1244 100.381 1245.19 93.2165 1243 88z"/>
<path style="fill:#ff007f; stroke:none;" d="M1070 788L1071 789L1070 788z"/>
<path style="fill:#ff0000; stroke:none;" d="M1077 793L1078 794L1077 793z"/>
<path style="fill:#b21f66; stroke:none;" d="M12 859L12 927L76 927L76 912L25 912L25 879C25 872.341 24.4494 865.513 26 859L12 859M1234 859L1234 912L1184 912L1184 927L1248 927L1248 859L1234 859z"/>
<path style="fill:#bf1f5f; stroke:none;" d="M25 860L25 912C26.7687 907.785 26 902.536 26 898L26 873C26 868.74 26.6611 863.959 25 860z"/>
<path style="fill:#b21e66; stroke:none;" d="M81 916L81 923C81.7789 921.231 81.9124 919.964 82 918L1177 918C1170.08 915.097 1159.48 917 1152 917L1096 917L903 917L342 917L166 917L111 917C101.251 917 90.5209 918.267 81 916z"/>
<path style="fill:#b11e64; stroke:none;" d="M82 916C89.879 919.306 102.466 917 111 917L175 917L399 917L1177 917L1177 923C1177.98 920.669 1177.98 918.543 1178 916L82 916z"/>
<path style="fill:#7f007f; stroke:none;" d="M1178 917L1178 922C1178.83 919.97 1178.83 919.03 1178 917z"/>
<path style="fill:#b21f66; stroke:none;" d="M82 918L82 922L1177 922L1177 918L82 918z"/>
<path style="fill:#b11f64; stroke:none;" d="M82 922C89.879 925.306 102.466 923 111 923L175 923L399 923L1177 923C1169.12 919.694 1156.53 922 1148 922L1084 922L859 922L82 922z"/>
</svg>
